<?xml version="1.0" encoding="UTF-8" standalone="no"?>
<svg
   xmlns:dc="http://purl.org/dc/elements/1.1/"
   xmlns:cc="http://creativecommons.org/ns#"
   xmlns:rdf="http://www.w3.org/1999/02/22-rdf-syntax-ns#"
   xmlns:svg="http://www.w3.org/2000/svg"
   xmlns="http://www.w3.org/2000/svg"
   xmlns:xlink="http://www.w3.org/1999/xlink"
   xmlns:sodipodi="http://sodipodi.sourceforge.net/DTD/sodipodi-0.dtd"
   xmlns:inkscape="http://www.inkscape.org/namespaces/inkscape"
   width="100%"
   height="100%"
   viewBox="0 0 1024 1024"
   version="1.1"
   xml:space="preserve"
   style="fill-rule:evenodd;clip-rule:evenodd;stroke-linejoin:round;stroke-miterlimit:2;"
   id="svg2366"
   sodipodi:docname="icon.svg"
   inkscape:version="1.0.2 (e86c8708, 2021-01-15)"
   inkscape:export-xdpi="57.790001"
   inkscape:export-ydpi="57.790001"
   inkscape:label="green"><defs
   id="defs2969"><linearGradient
     inkscape:collect="always"
     id="linearGradient1188"><stop
       style="stop-color:#fa892d;stop-opacity:1"
       offset="0"
       id="stop1184" /><stop
       style="stop-color:#dc7928;stop-opacity:1"
       offset="1"
       id="stop1186" /></linearGradient><linearGradient
     inkscape:collect="always"
     id="linearGradient1180"><stop
       style="stop-color:#c7652c;stop-opacity:1"
       offset="0"
       id="stop1176" /><stop
       style="stop-color:#954c21;stop-opacity:0.99596769"
       offset="1"
       id="stop1178" /></linearGradient><linearGradient
     inkscape:collect="always"
     id="linearGradient1172"><stop
       style="stop-color:#de272e;stop-opacity:1"
       offset="0"
       id="stop1168" /><stop
       style="stop-color:#a91e23;stop-opacity:0.99596769"
       offset="1"
       id="stop1170" /></linearGradient><linearGradient
     inkscape:collect="always"
     id="linearGradient1164"><stop
       style="stop-color:#529a4b;stop-opacity:1"
       offset="0"
       id="stop1160" /><stop
       style="stop-color:#3f773a;stop-opacity:1"
       offset="1"
       id="stop1162" /></linearGradient><linearGradient
     inkscape:collect="always"
     id="linearGradient1060"><stop
       style="stop-color:#0064a7;stop-opacity:0.98823529"
       offset="0"
       id="stop1056" /><stop
       style="stop-color:#084772;stop-opacity:1"
       offset="1"
       id="stop1058" /></linearGradient><linearGradient
     inkscape:collect="always"
     xlink:href="#linearGradient1172"
     id="linearGradient1174"
     x1="253.23432"
     y1="484.62205"
     x2="770.72467"
     y2="484.62205"
     gradientUnits="userSpaceOnUse" /><linearGradient
     inkscape:collect="always"
     xlink:href="#linearGradient1060"
     id="linearGradient1225"
     gradientUnits="userSpaceOnUse"
     x1="253.23431"
     y1="484.62204"
     x2="770.72467"
     y2="484.62204"
     gradientTransform="translate(-0.1972455,126.4043)" /><linearGradient
     inkscape:collect="always"
     xlink:href="#linearGradient1164"
     id="linearGradient1225-0"
     gradientUnits="userSpaceOnUse"
     x1="253.23431"
     y1="484.62204"
     x2="770.72467"
     y2="484.62204"
     gradientTransform="translate(0.08926976,250.79255)" /><filter
     inkscape:collect="always"
     style="color-interpolation-filters:sRGB"
     id="filter991"
     x="-0.0330672"
     width="1.0661344"
     y="-0.0330672"
     height="1.0661344"><feGaussianBlur
       inkscape:collect="always"
       stdDeviation="11.353067"
       id="feGaussianBlur993" /></filter><filter
     style="color-interpolation-filters:sRGB"
     inkscape:label="Drop Shadow"
     id="filter1103"><feFlood
       flood-opacity="0.498039"
       flood-color="rgb(0,0,0)"
       result="flood"
       id="feFlood1093" /><feComposite
       in="flood"
       in2="SourceGraphic"
       operator="in"
       result="composite1"
       id="feComposite1095" /><feGaussianBlur
       in="composite1"
       stdDeviation="8"
       result="blur"
       id="feGaussianBlur1097" /><feOffset
       dx="4"
       dy="4.19162"
       result="offset"
       id="feOffset1099" /><feComposite
       in="offset"
       in2="SourceGraphic"
       operator="out"
       result="composite2"
       id="feComposite1101" /></filter><linearGradient
     inkscape:collect="always"
     xlink:href="#linearGradient1164"
     id="linearGradient1150"
     gradientUnits="userSpaceOnUse"
     gradientTransform="translate(0.08927,250.79255)"
     x1="253.23431"
     y1="484.62204"
     x2="770.72467"
     y2="484.62204" /><filter
     style="color-interpolation-filters:sRGB"
     inkscape:label="Drop Shadow"
     id="filter1103-6"><feFlood
       flood-opacity="0.498039"
       flood-color="rgb(0,0,0)"
       result="flood"
       id="feFlood1093-4" /><feComposite
       in="flood"
       in2="SourceGraphic"
       operator="in"
       result="composite1"
       id="feComposite1095-8" /><feGaussianBlur
       in="composite1"
       stdDeviation="8"
       result="blur"
       id="feGaussianBlur1097-8" /><feOffset
       dx="4"
       dy="4.19162"
       result="offset"
       id="feOffset1099-5" /><feComposite
       in="offset"
       in2="SourceGraphic"
       operator="out"
       result="composite2"
       id="feComposite1101-3" /></filter><linearGradient
     inkscape:collect="always"
     xlink:href="#linearGradient1164"
     id="linearGradient1177"
     gradientUnits="userSpaceOnUse"
     gradientTransform="translate(-0.19784,126.40388)"
     x1="253.23431"
     y1="484.62204"
     x2="770.72467"
     y2="484.62204" /><filter
     style="color-interpolation-filters:sRGB"
     inkscape:label="Drop Shadow"
     id="filter1103-7"><feFlood
       flood-opacity="0.498039"
       flood-color="rgb(0,0,0)"
       result="flood"
       id="feFlood1093-7" /><feComposite
       in="flood"
       in2="SourceGraphic"
       operator="in"
       result="composite1"
       id="feComposite1095-3" /><feGaussianBlur
       in="composite1"
       stdDeviation="8"
       result="blur"
       id="feGaussianBlur1097-3" /><feOffset
       dx="4"
       dy="4.19162"
       result="offset"
       id="feOffset1099-7" /><feComposite
       in="offset"
       in2="SourceGraphic"
       operator="out"
       result="composite2"
       id="feComposite1101-1" /></filter><linearGradient
     inkscape:collect="always"
     xlink:href="#linearGradient1164"
     id="linearGradient1204"
     gradientUnits="userSpaceOnUse"
     gradientTransform="translate(-5.7e-4,-4.2e-4)"
     x1="253.23431"
     y1="484.62204"
     x2="770.72467"
     y2="484.62204" /><filter
     style="color-interpolation-filters:sRGB"
     inkscape:label="Drop Shadow"
     id="filter1103-3"><feFlood
       flood-opacity="0.498039"
       flood-color="rgb(0,0,0)"
       result="flood"
       id="feFlood1093-9" /><feComposite
       in="flood"
       in2="SourceGraphic"
       operator="in"
       result="composite1"
       id="feComposite1095-1" /><feGaussianBlur
       in="composite1"
       stdDeviation="8"
       result="blur"
       id="feGaussianBlur1097-5" /><feOffset
       dx="4"
       dy="4.19162"
       result="offset"
       id="feOffset1099-0" /><feComposite
       in="offset"
       in2="SourceGraphic"
       operator="out"
       result="composite2"
       id="feComposite1101-6" /></filter><filter
     style="color-interpolation-filters:sRGB;"
     inkscape:label="Drop Shadow"
     id="filter1304"><feFlood
       flood-opacity="0.498039"
       flood-color="rgb(0,0,0)"
       result="flood"
       id="feFlood1294" /><feComposite
       in="flood"
       in2="SourceGraphic"
       operator="in"
       result="composite1"
       id="feComposite1296" /><feGaussianBlur
       in="composite1"
       stdDeviation="8"
       result="blur"
       id="feGaussianBlur1298" /><feOffset
       dx="4"
       dy="4"
       result="offset"
       id="feOffset1300" /><feComposite
       in="offset"
       in2="SourceGraphic"
       operator="out"
       result="composite2"
       id="feComposite1302" /></filter><filter
     style="color-interpolation-filters:sRGB"
     inkscape:label="Drop Shadow"
     id="filter1103-7-5"><feFlood
       flood-opacity="0.498039"
       flood-color="rgb(0,0,0)"
       result="flood"
       id="feFlood1093-7-6" /><feComposite
       in="flood"
       in2="SourceGraphic"
       operator="in"
       result="composite1"
       id="feComposite1095-3-2" /><feGaussianBlur
       in="composite1"
       stdDeviation="8"
       result="blur"
       id="feGaussianBlur1097-3-8" /><feOffset
       dx="4"
       dy="4.19162"
       result="offset"
       id="feOffset1099-7-7" /><feComposite
       in="offset"
       in2="SourceGraphic"
       operator="out"
       result="composite2"
       id="feComposite1101-1-0" /></filter><linearGradient
     inkscape:collect="always"
     xlink:href="#linearGradient1164"
     id="linearGradient1363"
     gradientUnits="userSpaceOnUse"
     gradientTransform="translate(-5.9291574e-4,-125.96136)"
     x1="253.23431"
     y1="484.62204"
     x2="770.72467"
     y2="484.62204" /><linearGradient
     inkscape:collect="always"
     xlink:href="#linearGradient1188"
     id="linearGradient1453"
     gradientUnits="userSpaceOnUse"
     gradientTransform="matrix(18.481732,0,0,13.102121,-277.06079,-1033.3249)"
     x1="28.180038"
     y1="99.055267"
     x2="57.0158"
     y2="99.055267" /><linearGradient
     inkscape:collect="always"
     xlink:href="#linearGradient1188"
     id="linearGradient1495"
     gradientUnits="userSpaceOnUse"
     gradientTransform="matrix(18.481732,0,0,13.102121,-277.06079,-1033.3249)"
     x1="28.180038"
     y1="99.055267"
     x2="57.0158"
     y2="99.055267" /><filter
     style="color-interpolation-filters:sRGB;"
     inkscape:label="Drop Shadow"
     id="filter1508"><feFlood
       flood-opacity="0.498039"
       flood-color="rgb(0,0,0)"
       result="flood"
       id="feFlood1498" /><feComposite
       in="flood"
       in2="SourceGraphic"
       operator="in"
       result="composite1"
       id="feComposite1500" /><feGaussianBlur
       in="composite1"
       stdDeviation="8"
       result="blur"
       id="feGaussianBlur1502" /><feOffset
       dx="4"
       dy="4"
       result="offset"
       id="feOffset1504" /><feComposite
       in="offset"
       in2="SourceGraphic"
       operator="out"
       result="composite2"
       id="feComposite1506" /></filter><filter
     style="color-interpolation-filters:sRGB"
     inkscape:label="Drop Shadow"
     id="filter1103-7-2"><feFlood
       flood-opacity="0.498039"
       flood-color="rgb(0,0,0)"
       result="flood"
       id="feFlood1093-7-0" /><feComposite
       in="flood"
       in2="SourceGraphic"
       operator="in"
       result="composite1"
       id="feComposite1095-3-1" /><feGaussianBlur
       in="composite1"
       stdDeviation="8"
       result="blur"
       id="feGaussianBlur1097-3-89" /><feOffset
       dx="4"
       dy="4.19162"
       result="offset"
       id="feOffset1099-7-8" /><feComposite
       in="offset"
       in2="SourceGraphic"
       operator="out"
       result="composite2"
       id="feComposite1101-1-3" /></filter><linearGradient
     inkscape:collect="always"
     xlink:href="#linearGradient1180"
     id="linearGradient1645"
     gradientUnits="userSpaceOnUse"
     x1="253.23431"
     y1="484.62204"
     x2="770.72467"
     y2="484.62204"
     gradientTransform="translate(-2.4e-5,-125.96094)" /></defs><metadata
   id="metadata2370"><rdf:RDF><cc:Work
       rdf:about=""><dc:format>image/svg+xml</dc:format><dc:type
         rdf:resource="http://purl.org/dc/dcmitype/StillImage" /><dc:title></dc:title></cc:Work></rdf:RDF></metadata><sodipodi:namedview
   pagecolor="#ffffff"
   bordercolor="#666666"
   borderopacity="1"
   objecttolerance="10"
   gridtolerance="10"
   guidetolerance="10"
   inkscape:pageopacity="0"
   inkscape:pageshadow="2"
   inkscape:window-width="1680"
   inkscape:window-height="938"
   id="namedview2368"
   showgrid="false"
   inkscape:zoom="0.56915012"
   inkscape:cx="338.84421"
   inkscape:cy="424.54609"
   inkscape:window-x="0"
   inkscape:window-y="25"
   inkscape:window-maximized="1"
   inkscape:current-layer="svg2366"
   inkscape:document-rotation="0" />
  <path
   d="m 923.36257,294.099 c 8.858,-100.22 -75.686,-184.628 -187.957,-188.083 h -447.433 c -105.078,-1.342 -189.279998,82.953 -187.957,188.083 v 447.732 c 0.604,106.676 84.886,191.244 187.957,188.083 h 447.433 c 105.547,2.157 189.892,-81.99 187.957,-188.083 z"
   id="path2364-9"
   style="clip-rule:evenodd;opacity:0.501608;fill:#0b0b0b;fill-opacity:1;fill-rule:evenodd;stroke:none;stroke-linejoin:round;stroke-miterlimit:2;stroke-opacity:1;filter:url(#filter991)"
   inkscape:label="shadow"
   transform="matrix(0.9976477,0,0,1.0000753,1.2043061,0.96123416)" /><path
   d="M923.347,288.083c8.858,-100.22 -75.686,-184.628 -187.957,-188.083l-447.433,-0c-105.078,-1.342 -189.28,82.953 -187.957,188.083l-0,447.732c0.604,106.676 84.886,191.244 187.957,188.083l447.433,0c105.547,2.157 189.892,-81.99 187.957,-188.083l0,-447.732Z"
   id="path2364"
   style="fill:#fdfdfd;fill-opacity:1;stroke:none;stroke-opacity:1"
   inkscape:label="background" /><g
   id="g1601"
   inkscape:label="shadows"><path
     id="path1112-3-6-4"
     style="color:#000000;font-style:normal;font-variant:normal;font-weight:normal;font-stretch:normal;font-size:medium;line-height:normal;font-family:sans-serif;font-variant-ligatures:normal;font-variant-position:normal;font-variant-caps:normal;font-variant-numeric:normal;font-variant-alternates:normal;font-variant-east-asian:normal;font-feature-settings:normal;font-variation-settings:normal;text-indent:0;text-align:start;text-decoration:none;text-decoration-line:none;text-decoration-style:solid;text-decoration-color:#000000;letter-spacing:normal;word-spacing:normal;text-transform:none;writing-mode:lr-tb;direction:ltr;text-orientation:mixed;dominant-baseline:auto;baseline-shift:baseline;text-anchor:start;white-space:normal;shape-padding:0;shape-margin:0;inline-size:0;clip-rule:nonzero;display:inline;overflow:visible;visibility:visible;isolation:auto;mix-blend-mode:normal;color-interpolation:sRGB;color-interpolation-filters:linearRGB;solid-color:#000000;solid-opacity:1;vector-effect:none;fill:url(#linearGradient1150);fill-opacity:1;fill-rule:evenodd;stroke:none;stroke-width:15.5612;stroke-linecap:butt;stroke-linejoin:miter;stroke-miterlimit:2;stroke-dasharray:none;stroke-dashoffset:0;stroke-opacity:1;filter:url(#filter1103);color-rendering:auto;image-rendering:auto;shape-rendering:auto;text-rendering:auto;enable-background:accumulate;stop-color:#000000"
     inkscape:label="green"
     d="m 770.81443,661.63086 c -3.9833,4.50942 -9.3448,8.72123 -15.7402,12.57226 -14.2824,8.60037 -33.9925,15.90079 -57.9707,22.00782 -47.9564,12.21419 -113.1069,19.55078 -185.0352,19.55078 -71.9282,0 -137.0416,-7.33659 -184.998,-19.55078 -23.97824,-6.10703 -43.72544,-13.40745 -58.00783,-22.00782 -6.39443,-3.85044 -11.75516,-8.06167 -15.73828,-12.57031 v 99.98633 1.74024 a 3.916116,2.776224 0 0 0 0.22266,0.93359 c 1.27835,8.45904 8.56337,16.4505 20.5332,23.6582 13.22431,7.96321 32.19982,15.0525 55.58985,21.00977 46.78,11.91454 111.2219,19.24414 182.4004,19.24414 71.1785,0 135.6184,-7.3296 182.3984,-19.24414 23.39,-5.95727 42.3656,-13.04656 55.5899,-21.00977 11.9679,-7.20653 19.2511,-15.19679 20.5312,-23.65429 a 3.916116,2.776224 0 0 0 0.2246,-0.9375 v -1.74024 z" /><path
     id="path1112-3-6-1"
     style="color:#000000;font-style:normal;font-variant:normal;font-weight:normal;font-stretch:normal;font-size:medium;line-height:normal;font-family:sans-serif;font-variant-ligatures:normal;font-variant-position:normal;font-variant-caps:normal;font-variant-numeric:normal;font-variant-alternates:normal;font-variant-east-asian:normal;font-feature-settings:normal;font-variation-settings:normal;text-indent:0;text-align:start;text-decoration:none;text-decoration-line:none;text-decoration-style:solid;text-decoration-color:#000000;letter-spacing:normal;word-spacing:normal;text-transform:none;writing-mode:lr-tb;direction:ltr;text-orientation:mixed;dominant-baseline:auto;baseline-shift:baseline;text-anchor:start;white-space:normal;shape-padding:0;shape-margin:0;inline-size:0;clip-rule:nonzero;display:inline;overflow:visible;visibility:visible;isolation:auto;mix-blend-mode:normal;color-interpolation:sRGB;color-interpolation-filters:linearRGB;solid-color:#000000;solid-opacity:1;vector-effect:none;fill:url(#linearGradient1177);fill-opacity:1;fill-rule:evenodd;stroke:none;stroke-width:15.5612;stroke-linecap:butt;stroke-linejoin:miter;stroke-miterlimit:2;stroke-dasharray:none;stroke-dashoffset:0;stroke-opacity:1;filter:url(#filter1103-6);color-rendering:auto;image-rendering:auto;shape-rendering:auto;text-rendering:auto;enable-background:accumulate;stop-color:#000000"
     inkscape:label="blue"
     d="m 770.52734,537.24219 c -3.98331,4.50942 -9.34482,8.72123 -15.74023,12.57226 -14.28241,8.60037 -33.99251,15.90079 -57.9707,22.00782 -47.9564,12.21419 -113.10688,19.55078 -185.03516,19.55078 -71.92826,0 -137.04165,-7.33659 -184.99805,-19.55078 -23.97822,-6.10703 -43.72542,-13.40745 -58.00781,-22.00782 -6.39443,-3.85044 -11.75516,-8.06167 -15.73828,-12.57031 v 99.98633 1.74024 a 3.916116,2.776224 0 0 0 0.22266,0.93359 c 1.27835,8.45904 8.56337,16.4505 20.5332,23.6582 13.22431,7.96321 32.19982,15.0525 55.58984,21.00977 46.78002,11.91454 111.22191,19.24414 182.40039,19.24414 71.17849,0 135.61842,-7.3296 182.39844,-19.24414 23.39001,-5.95727 42.36555,-13.04656 55.58984,-21.00977 11.96792,-7.20653 19.25115,-15.19679 20.53125,-23.65429 a 3.916116,2.776224 0 0 0 0.22461,-0.9375 v -1.74024 z" /><path
     id="path1112-3-6-18"
     style="color:#000000;font-style:normal;font-variant:normal;font-weight:normal;font-stretch:normal;font-size:medium;line-height:normal;font-family:sans-serif;font-variant-ligatures:normal;font-variant-position:normal;font-variant-caps:normal;font-variant-numeric:normal;font-variant-alternates:normal;font-variant-east-asian:normal;font-feature-settings:normal;font-variation-settings:normal;text-indent:0;text-align:start;text-decoration:none;text-decoration-line:none;text-decoration-style:solid;text-decoration-color:#000000;letter-spacing:normal;word-spacing:normal;text-transform:none;writing-mode:lr-tb;direction:ltr;text-orientation:mixed;dominant-baseline:auto;baseline-shift:baseline;text-anchor:start;white-space:normal;shape-padding:0;shape-margin:0;inline-size:0;clip-rule:nonzero;display:inline;overflow:visible;visibility:visible;isolation:auto;mix-blend-mode:normal;color-interpolation:sRGB;color-interpolation-filters:linearRGB;solid-color:#000000;solid-opacity:1;vector-effect:none;fill:url(#linearGradient1204);fill-opacity:1;fill-rule:evenodd;stroke:none;stroke-width:15.5612;stroke-linecap:butt;stroke-linejoin:miter;stroke-miterlimit:2;stroke-dasharray:none;stroke-dashoffset:0;stroke-opacity:1;filter:url(#filter1103-7);color-rendering:auto;image-rendering:auto;shape-rendering:auto;text-rendering:auto;enable-background:accumulate;stop-color:#000000"
     inkscape:label="red"
     d="m 770.72461,410.83789 c -3.98331,4.50942 -9.34482,8.72123 -15.74023,12.57226 -14.28241,8.60037 -33.99251,15.90079 -57.9707,22.00782 -47.9564,12.21419 -113.10688,19.55078 -185.03516,19.55078 -71.92826,0 -137.04165,-7.33659 -184.99805,-19.55078 -23.97822,-6.10703 -43.72542,-13.40745 -58.00781,-22.00782 -6.39443,-3.85044 -11.75516,-8.06167 -15.73828,-12.57031 v 99.98633 1.74024 a 3.916116,2.776224 0 0 0 0.22266,0.93359 c 1.27835,8.45904 8.56337,16.4505 20.5332,23.6582 13.22431,7.96321 32.19982,15.0525 55.58984,21.00977 46.78002,11.91454 111.22191,19.24414 182.40039,19.24414 71.17849,0 135.61842,-7.3296 182.39844,-19.24414 23.39001,-5.95727 42.36555,-13.04656 55.58984,-21.00977 11.96792,-7.20653 19.25115,-15.19679 20.53125,-23.65429 a 3.916116,2.776224 0 0 0 0.22461,-0.9375 v -1.74024 z" /><path
     id="path1112-3-6-18-7"
     style="color:#000000;font-style:normal;font-variant:normal;font-weight:normal;font-stretch:normal;font-size:medium;line-height:normal;font-family:sans-serif;font-variant-ligatures:normal;font-variant-position:normal;font-variant-caps:normal;font-variant-numeric:normal;font-variant-alternates:normal;font-variant-east-asian:normal;font-feature-settings:normal;font-variation-settings:normal;text-indent:0;text-align:start;text-decoration:none;text-decoration-line:none;text-decoration-style:solid;text-decoration-color:#000000;letter-spacing:normal;word-spacing:normal;text-transform:none;writing-mode:lr-tb;direction:ltr;text-orientation:mixed;dominant-baseline:auto;baseline-shift:baseline;text-anchor:start;white-space:normal;shape-padding:0;shape-margin:0;inline-size:0;clip-rule:nonzero;display:inline;overflow:visible;visibility:visible;isolation:auto;mix-blend-mode:normal;color-interpolation:sRGB;color-interpolation-filters:linearRGB;solid-color:#000000;solid-opacity:1;vector-effect:none;fill:url(#linearGradient1363);fill-opacity:1;fill-rule:evenodd;stroke:none;stroke-width:15.5612;stroke-linecap:butt;stroke-linejoin:miter;stroke-miterlimit:2;stroke-dasharray:none;stroke-dashoffset:0;stroke-opacity:1;filter:url(#filter1103-7-5);color-rendering:auto;image-rendering:auto;shape-rendering:auto;text-rendering:auto;enable-background:accumulate;stop-color:#000000"
     inkscape:label="amber"
     d="m 770.72456,284.87695 c -3.9833,4.50942 -9.3448,8.72123 -15.7402,12.57226 -14.2824,8.60037 -33.99251,15.90079 -57.9707,22.00782 -47.9564,12.21419 -113.10688,19.55078 -185.03516,19.55078 -71.92826,0 -137.04165,-7.33659 -184.99805,-19.55078 -23.97822,-6.10703 -43.72542,-13.40745 -58.00781,-22.00782 -6.39443,-3.85044 -11.75516,-8.06167 -15.73828,-12.57031 v 99.98633 1.74024 a 3.916116,2.776224 0 0 0 0.22266,0.93359 c 1.27835,8.45904 8.56337,16.4505 20.5332,23.6582 13.22431,7.96321 32.19982,15.0525 55.58984,21.00977 46.78002,11.91454 111.22191,19.24414 182.40039,19.24414 71.17849,0 135.61842,-7.3296 182.39844,-19.24414 23.39001,-5.95727 42.36557,-13.04656 55.58987,-21.00977 11.9679,-7.20653 19.2511,-15.19679 20.5312,-23.65429 a 3.916116,2.776224 0 0 0 0.2246,-0.9375 v -1.74024 z" /><path
     id="path1443-3"
     style="color:#000000;font-style:normal;font-variant:normal;font-weight:normal;font-stretch:normal;font-size:medium;line-height:normal;font-family:sans-serif;font-variant-ligatures:normal;font-variant-position:normal;font-variant-caps:normal;font-variant-numeric:normal;font-variant-alternates:normal;font-variant-east-asian:normal;font-feature-settings:normal;font-variation-settings:normal;text-indent:0;text-align:start;text-decoration:none;text-decoration-line:none;text-decoration-style:solid;text-decoration-color:#000000;letter-spacing:normal;word-spacing:normal;text-transform:none;writing-mode:lr-tb;direction:ltr;text-orientation:mixed;dominant-baseline:auto;baseline-shift:baseline;text-anchor:start;white-space:normal;shape-padding:0;shape-margin:0;inline-size:0;clip-rule:evenodd;display:inline;overflow:visible;visibility:visible;isolation:auto;mix-blend-mode:normal;color-interpolation:sRGB;color-interpolation-filters:linearRGB;solid-color:#000000;solid-opacity:1;vector-effect:none;fill:url(#linearGradient1495);fill-opacity:1;fill-rule:evenodd;stroke:none;stroke-width:15.5612;stroke-linecap:butt;stroke-linejoin:round;stroke-miterlimit:4;stroke-dasharray:none;stroke-dashoffset:0;stroke-opacity:1;filter:url(#filter1508);color-rendering:auto;image-rendering:auto;shape-rendering:auto;text-rendering:auto;enable-background:accumulate;stop-color:#000000"
     d="m 510.22308,206.77544 c -8.81196,0 -17.52017,0.11483 -26.10156,0.33789 -8.5814,0.22305 -17.0361,0.55402 -25.3418,0.98828 -8.3057,0.43426 -16.46238,0.97185 -24.44727,1.60547 -7.98488,0.63362 -15.79706,1.36441 -23.41601,2.18554 -7.61895,0.82114 -15.04407,1.73171 -22.25196,2.72852 -7.20788,0.99681 -14.19947,2.0796 -20.95117,3.24023 -6.75169,1.16064 -13.26329,2.40028 -19.51367,3.71289 -6.25038,1.31262 -12.23941,2.69764 -17.94336,4.15039 -5.70394,1.45276 -11.12414,2.97587 -16.23242,4.55664 -5.10828,1.58078 -9.90462,3.21942 -14.36133,4.9004 -4.45671,1.68097 -8.57304,3.40483 -12.32226,5.1582 -3.74922,1.75337 -7.13138,3.53604 -10.11719,5.33398 -2.98582,1.79795 -5.5076,3.5664 -7.60938,5.28516 -2.10177,1.71876 -3.78429,3.3887 -5.09375,4.98633 -1.30945,1.59762 -2.24465,3.12404 -2.85351,4.55859 -0.60887,1.43455 -0.89063,2.77634 -0.89063,4.00586 0,1.22952 0.28176,2.5715 0.89063,4.00586 0.60886,1.43436 1.54406,2.96121 2.85351,4.55859 1.30946,1.59739 2.99198,3.26581 5.09375,4.98438 2.10178,1.71857 4.62356,3.48722 7.60938,5.28515 2.98581,1.79795 6.36797,3.58044 10.11719,5.33399 3.74922,1.75355 7.86555,3.47893 12.32226,5.16016 4.45671,1.68122 9.25304,3.31943 14.36133,4.90039 5.10829,1.58095 10.52848,3.10388 16.23242,4.55664 5.70395,1.45275 11.69298,2.83782 17.94336,4.15039 6.25038,1.31256 12.76198,2.55234 19.51367,3.71289 6.7517,1.16054 13.74329,2.24158 20.95117,3.23828 7.20789,0.99669 14.63301,1.90945 22.25196,2.73047 7.61895,0.82101 15.43113,1.55204 23.41601,2.18555 7.98489,0.6335 16.14157,1.16934 24.44727,1.60351 8.3057,0.43417 16.7604,0.76528 25.3418,0.98828 8.58139,0.223 17.2896,0.33789 26.10156,0.33789 8.81196,0 17.52022,-0.11489 26.10156,-0.33789 8.58134,-0.223 17.03619,-0.55411 25.3418,-0.98828 8.30561,-0.43417 16.46249,-0.97001 24.44726,-1.60351 7.98478,-0.63351 15.79719,-1.36454 23.41602,-2.18555 7.61883,-0.82102 15.04418,-1.73378 22.25195,-2.73047 7.20777,-0.9967 14.19762,-2.07774 20.94922,-3.23828 6.75161,-1.16055 13.26334,-2.40033 19.51367,-3.71289 6.25033,-1.31257 12.23942,-2.69764 17.94337,-4.15039 5.70394,-1.45276 11.12413,-2.97569 16.23242,-4.55664 5.10829,-1.58096 9.90462,-3.21917 14.36133,-4.90039 4.45671,-1.68123 8.57304,-3.40661 12.32226,-5.16016 3.74922,-1.75355 7.13138,-3.53604 10.11719,-5.33399 2.98582,-1.79793 5.5076,-3.56658 7.60938,-5.28515 2.10177,-1.71857 3.78429,-3.38699 5.09375,-4.98438 1.30945,-1.59738 2.24465,-3.12423 2.85351,-4.55859 0.60887,-1.43436 0.89063,-2.77634 0.89063,-4.00586 0,-1.22952 -0.28176,-2.57131 -0.89063,-4.00586 -0.60886,-1.43455 -1.54406,-2.96097 -2.85351,-4.55859 -1.30946,-1.59763 -2.99198,-3.26757 -5.09375,-4.98633 -2.10178,-1.71876 -4.62356,-3.48721 -7.60938,-5.28516 -2.98581,-1.79794 -6.36797,-3.58061 -10.11719,-5.33398 -3.74922,-1.75337 -7.86555,-3.47723 -12.32226,-5.1582 -4.45671,-1.68098 -9.25304,-3.31962 -14.36133,-4.9004 -5.10829,-1.58077 -10.52848,-3.10388 -16.23242,-4.55664 -5.70395,-1.45275 -11.69304,-2.83777 -17.94337,-4.15039 -6.25033,-1.31261 -12.76206,-2.55225 -19.51367,-3.71289 -6.7516,-1.16063 -13.74145,-2.24342 -20.94922,-3.24023 -7.20777,-0.99681 -14.63312,-1.90738 -22.25195,-2.72852 -7.61883,-0.82113 -15.43124,-1.55192 -23.41602,-2.18554 -7.98477,-0.63362 -16.14165,-1.17121 -24.44726,-1.60547 -8.30561,-0.43426 -16.76046,-0.76523 -25.3418,-0.98828 -8.58134,-0.22306 -17.2896,-0.33789 -26.10156,-0.33789 z"
     inkscape:label="top" /></g><path
   id="path1112-3-6"
   style="color:#000000;font-style:normal;font-variant:normal;font-weight:normal;font-stretch:normal;font-size:medium;line-height:normal;font-family:sans-serif;font-variant-ligatures:normal;font-variant-position:normal;font-variant-caps:normal;font-variant-numeric:normal;font-variant-alternates:normal;font-variant-east-asian:normal;font-feature-settings:normal;font-variation-settings:normal;text-indent:0;text-align:start;text-decoration:none;text-decoration-line:none;text-decoration-style:solid;text-decoration-color:#000000;letter-spacing:normal;word-spacing:normal;text-transform:none;writing-mode:lr-tb;direction:ltr;text-orientation:mixed;dominant-baseline:auto;baseline-shift:baseline;text-anchor:start;white-space:normal;shape-padding:0;shape-margin:0;inline-size:0;clip-rule:nonzero;display:inline;overflow:visible;visibility:visible;isolation:auto;mix-blend-mode:normal;color-interpolation:sRGB;color-interpolation-filters:linearRGB;solid-color:#000000;solid-opacity:1;vector-effect:none;fill:url(#linearGradient1225-0);fill-opacity:1;fill-rule:evenodd;stroke:none;stroke-width:15.5612;stroke-linecap:butt;stroke-linejoin:miter;stroke-miterlimit:2;stroke-dasharray:none;stroke-dashoffset:0;stroke-opacity:1;color-rendering:auto;image-rendering:auto;shape-rendering:auto;text-rendering:auto;enable-background:accumulate;stop-color:#000000"
   inkscape:label="green"
   d="m 770.81445,661.63086 c -3.98331,4.50942 -9.34482,8.72123 -15.74023,12.57226 -14.28241,8.60037 -33.99251,15.90079 -57.9707,22.00782 -47.9564,12.21419 -113.10688,19.55078 -185.03516,19.55078 -71.92826,0 -137.04165,-7.33659 -184.99805,-19.55078 -23.97822,-6.10703 -43.72542,-13.40745 -58.00781,-22.00782 -6.39443,-3.85044 -11.75516,-8.06167 -15.73828,-12.57031 v 99.98633 1.74024 a 3.916116,2.776224 0 0 0 0.22266,0.93359 c 1.27835,8.45904 8.56337,16.4505 20.5332,23.6582 13.22431,7.96321 32.19982,15.0525 55.58984,21.00977 46.78002,11.91454 111.22191,19.24414 182.40039,19.24414 71.17849,0 135.61842,-7.3296 182.39844,-19.24414 23.39001,-5.95727 42.36555,-13.04656 55.58984,-21.00977 11.96792,-7.20653 19.25115,-15.19679 20.53125,-23.65429 a 3.916116,2.776224 0 0 0 0.22461,-0.9375 v -1.74024 z" />
<path
   id="path1112-3"
   style="color:#000000;font-style:normal;font-variant:normal;font-weight:normal;font-stretch:normal;font-size:medium;line-height:normal;font-family:sans-serif;font-variant-ligatures:normal;font-variant-position:normal;font-variant-caps:normal;font-variant-numeric:normal;font-variant-alternates:normal;font-variant-east-asian:normal;font-feature-settings:normal;font-variation-settings:normal;text-indent:0;text-align:start;text-decoration:none;text-decoration-line:none;text-decoration-style:solid;text-decoration-color:#000000;letter-spacing:normal;word-spacing:normal;text-transform:none;writing-mode:lr-tb;direction:ltr;text-orientation:mixed;dominant-baseline:auto;baseline-shift:baseline;text-anchor:start;white-space:normal;shape-padding:0;shape-margin:0;inline-size:0;clip-rule:nonzero;display:inline;overflow:visible;visibility:visible;isolation:auto;mix-blend-mode:normal;color-interpolation:sRGB;color-interpolation-filters:linearRGB;solid-color:#000000;solid-opacity:1;vector-effect:none;fill:url(#linearGradient1225);fill-opacity:1;fill-rule:evenodd;stroke:none;stroke-width:15.5612;stroke-linecap:butt;stroke-linejoin:miter;stroke-miterlimit:2;stroke-dasharray:none;stroke-dashoffset:0;stroke-opacity:1;color-rendering:auto;image-rendering:auto;shape-rendering:auto;text-rendering:auto;enable-background:accumulate;stop-color:#000000"
   inkscape:label="blue"
   d="m 253.03711,537.24219 v 99.98828 1.74023 a 3.916116,2.776224 0 0 0 0.22266,0.9336 c 1.27836,8.45904 8.56337,16.4505 20.5332,23.6582 13.22431,7.96321 32.19982,15.0525 55.58984,21.00977 46.78002,11.91454 111.22191,19.24414 182.40039,19.24414 71.17849,0 135.61842,-7.3296 182.39844,-19.24414 23.39001,-5.95727 42.36556,-13.04656 55.58984,-21.00977 11.96792,-7.20653 19.25115,-15.19679 20.53125,-23.6543 a 3.916116,2.776224 0 0 0 0.22461,-0.9375 v -1.74023 -99.98633 c -3.98314,4.5087 -9.34378,8.71982 -15.73828,12.57031 -14.2824,8.60037 -33.99445,15.90079 -57.97265,22.00782 -47.9564,12.21419 -113.10493,19.55078 -185.03321,19.55078 -71.92825,0 -137.04165,-7.33659 -184.99804,-19.55078 -23.97822,-6.10703 -43.72543,-13.40745 -58.00782,-22.00782 -6.39541,-3.85103 -11.75692,-8.06284 -15.74023,-12.57226 z" /><path
   id="path1112"
   style="color:#000000;font-style:normal;font-variant:normal;font-weight:normal;font-stretch:normal;font-size:medium;line-height:normal;font-family:sans-serif;font-variant-ligatures:normal;font-variant-position:normal;font-variant-caps:normal;font-variant-numeric:normal;font-variant-alternates:normal;font-variant-east-asian:normal;font-feature-settings:normal;font-variation-settings:normal;text-indent:0;text-align:start;text-decoration:none;text-decoration-line:none;text-decoration-style:solid;text-decoration-color:#000000;letter-spacing:normal;word-spacing:normal;text-transform:none;writing-mode:lr-tb;direction:ltr;text-orientation:mixed;dominant-baseline:auto;baseline-shift:baseline;text-anchor:start;white-space:normal;shape-padding:0;shape-margin:0;inline-size:0;clip-rule:nonzero;display:inline;overflow:visible;visibility:visible;isolation:auto;mix-blend-mode:normal;color-interpolation:sRGB;color-interpolation-filters:linearRGB;solid-color:#000000;solid-opacity:1;vector-effect:none;fill:url(#linearGradient1174);fill-opacity:1;fill-rule:evenodd;stroke:none;stroke-width:15.5612;stroke-linecap:butt;stroke-linejoin:miter;stroke-miterlimit:2;stroke-dasharray:none;stroke-dashoffset:0;stroke-opacity:1;color-rendering:auto;image-rendering:auto;shape-rendering:auto;text-rendering:auto;enable-background:accumulate;stop-color:#000000"
   inkscape:label="red"
   d="m 253.23438,410.83789 v 99.98828 1.74024 a 3.916116,2.776224 0 0 0 0.22265,0.93359 c 1.27836,8.45904 8.56338,16.4505 20.5332,23.6582 13.22431,7.96321 32.19983,15.0525 55.58985,21.00977 46.78002,11.91454 111.2219,19.24414 182.40039,19.24414 71.17848,0 135.61842,-7.3296 182.39844,-19.24414 23.39,-5.95727 42.36555,-13.04656 55.58984,-21.00977 11.96792,-7.20653 19.25115,-15.19678 20.53125,-23.65429 a 3.916116,2.776224 0 0 0 0.22461,-0.9375 v -1.74024 -99.98633 c -3.98314,4.5087 -9.34378,8.71983 -15.73828,12.57032 -14.28241,8.60036 -33.99446,15.90078 -57.97266,22.00781 -47.9564,12.21419 -113.10492,19.55078 -185.0332,19.55078 -71.92826,0 -137.04165,-7.33659 -184.99805,-19.55078 -23.97822,-6.10703 -43.72542,-13.40745 -58.00781,-22.00781 -6.39542,-3.85104 -11.75692,-8.06284 -15.74023,-12.57227 z" /><path
   id="path1443"
   style="color:#000000;font-style:normal;font-variant:normal;font-weight:normal;font-stretch:normal;font-size:medium;line-height:normal;font-family:sans-serif;font-variant-ligatures:normal;font-variant-position:normal;font-variant-caps:normal;font-variant-numeric:normal;font-variant-alternates:normal;font-variant-east-asian:normal;font-feature-settings:normal;font-variation-settings:normal;text-indent:0;text-align:start;text-decoration:none;text-decoration-line:none;text-decoration-style:solid;text-decoration-color:#000000;letter-spacing:normal;word-spacing:normal;text-transform:none;writing-mode:lr-tb;direction:ltr;text-orientation:mixed;dominant-baseline:auto;baseline-shift:baseline;text-anchor:start;white-space:normal;shape-padding:0;shape-margin:0;inline-size:0;clip-rule:evenodd;display:inline;overflow:visible;visibility:visible;isolation:auto;mix-blend-mode:normal;color-interpolation:sRGB;color-interpolation-filters:linearRGB;solid-color:#000000;solid-opacity:1;vector-effect:none;fill:url(#linearGradient1453);fill-opacity:1;fill-rule:evenodd;stroke:none;stroke-width:15.5612;stroke-linecap:butt;stroke-linejoin:round;stroke-miterlimit:4;stroke-dasharray:none;stroke-dashoffset:0;stroke-opacity:1;color-rendering:auto;image-rendering:auto;shape-rendering:auto;text-rendering:auto;enable-background:accumulate;stop-color:#000000"
   d="m 510.22308,206.77544 c -8.81196,0 -17.52017,0.11483 -26.10156,0.33789 -8.5814,0.22305 -17.0361,0.55402 -25.3418,0.98828 -8.3057,0.43426 -16.46238,0.97185 -24.44727,1.60547 -7.98488,0.63362 -15.79706,1.36441 -23.41601,2.18554 -7.61895,0.82114 -15.04407,1.73171 -22.25196,2.72852 -7.20788,0.99681 -14.19947,2.0796 -20.95117,3.24023 -6.75169,1.16064 -13.26329,2.40028 -19.51367,3.71289 -6.25038,1.31262 -12.23941,2.69764 -17.94336,4.15039 -5.70394,1.45276 -11.12414,2.97587 -16.23242,4.55664 -5.10828,1.58078 -9.90462,3.21942 -14.36133,4.9004 -4.45671,1.68097 -8.57304,3.40483 -12.32226,5.1582 -3.74922,1.75337 -7.13138,3.53604 -10.11719,5.33398 -2.98582,1.79795 -5.5076,3.5664 -7.60938,5.28516 -2.10177,1.71876 -3.78429,3.3887 -5.09375,4.98633 -1.30945,1.59762 -2.24465,3.12404 -2.85351,4.55859 -0.60887,1.43455 -0.89063,2.77634 -0.89063,4.00586 0,1.22952 0.28176,2.5715 0.89063,4.00586 0.60886,1.43436 1.54406,2.96121 2.85351,4.55859 1.30946,1.59739 2.99198,3.26581 5.09375,4.98438 2.10178,1.71857 4.62356,3.48722 7.60938,5.28515 2.98581,1.79795 6.36797,3.58044 10.11719,5.33399 3.74922,1.75355 7.86555,3.47893 12.32226,5.16016 4.45671,1.68122 9.25304,3.31943 14.36133,4.90039 5.10829,1.58095 10.52848,3.10388 16.23242,4.55664 5.70395,1.45275 11.69298,2.83782 17.94336,4.15039 6.25038,1.31256 12.76198,2.55234 19.51367,3.71289 6.7517,1.16054 13.74329,2.24158 20.95117,3.23828 7.20789,0.99669 14.63301,1.90945 22.25196,2.73047 7.61895,0.82101 15.43113,1.55204 23.41601,2.18555 7.98489,0.6335 16.14157,1.16934 24.44727,1.60351 8.3057,0.43417 16.7604,0.76528 25.3418,0.98828 8.58139,0.223 17.2896,0.33789 26.10156,0.33789 8.81196,0 17.52022,-0.11489 26.10156,-0.33789 8.58134,-0.223 17.03619,-0.55411 25.3418,-0.98828 8.30561,-0.43417 16.46249,-0.97001 24.44726,-1.60351 7.98478,-0.63351 15.79719,-1.36454 23.41602,-2.18555 7.61883,-0.82102 15.04418,-1.73378 22.25195,-2.73047 7.20777,-0.9967 14.19762,-2.07774 20.94922,-3.23828 6.75161,-1.16055 13.26334,-2.40033 19.51367,-3.71289 6.25033,-1.31257 12.23942,-2.69764 17.94337,-4.15039 5.70394,-1.45276 11.12413,-2.97569 16.23242,-4.55664 5.10828,-1.58096 9.90462,-3.21917 14.36133,-4.90039 4.45671,-1.68123 8.57304,-3.40661 12.32226,-5.16016 3.74922,-1.75355 7.13138,-3.53604 10.11719,-5.33399 2.98581,-1.79793 5.5076,-3.56658 7.60938,-5.28515 2.10177,-1.71857 3.78429,-3.38699 5.09375,-4.98438 1.30945,-1.59738 2.24465,-3.12423 2.85351,-4.55859 0.60886,-1.43436 0.89063,-2.77634 0.89063,-4.00586 0,-1.22952 -0.28177,-2.57131 -0.89063,-4.00586 -0.60886,-1.43455 -1.54406,-2.96097 -2.85351,-4.55859 -1.30946,-1.59763 -2.99198,-3.26757 -5.09375,-4.98633 -2.10178,-1.71876 -4.62357,-3.48721 -7.60938,-5.28516 -2.98581,-1.79794 -6.36797,-3.58061 -10.11719,-5.33398 -3.74922,-1.75337 -7.86555,-3.47723 -12.32226,-5.1582 -4.45671,-1.68098 -9.25305,-3.31962 -14.36133,-4.9004 -5.10829,-1.58077 -10.52848,-3.10388 -16.23242,-4.55664 -5.70395,-1.45275 -11.69304,-2.83777 -17.94337,-4.15039 -6.25033,-1.31261 -12.76206,-2.55225 -19.51367,-3.71289 -6.7516,-1.16063 -13.74145,-2.24342 -20.94922,-3.24023 -7.20777,-0.99681 -14.63312,-1.90738 -22.25195,-2.72852 -7.61883,-0.82113 -15.43124,-1.55192 -23.41602,-2.18554 -7.98477,-0.63362 -16.14165,-1.17121 -24.44726,-1.60547 -8.30561,-0.43426 -16.76046,-0.76523 -25.3418,-0.98828 -8.58134,-0.22306 -17.2896,-0.33789 -26.10156,-0.33789 z"
   inkscape:label="ambertop" /><path
   id="path1112-0"
   style="color:#000000;font-style:normal;font-variant:normal;font-weight:normal;font-stretch:normal;font-size:medium;line-height:normal;font-family:sans-serif;font-variant-ligatures:normal;font-variant-position:normal;font-variant-caps:normal;font-variant-numeric:normal;font-variant-alternates:normal;font-variant-east-asian:normal;font-feature-settings:normal;font-variation-settings:normal;text-indent:0;text-align:start;text-decoration:none;text-decoration-line:none;text-decoration-style:solid;text-decoration-color:#000000;letter-spacing:normal;word-spacing:normal;text-transform:none;writing-mode:lr-tb;direction:ltr;text-orientation:mixed;dominant-baseline:auto;baseline-shift:baseline;text-anchor:start;white-space:normal;shape-padding:0;shape-margin:0;inline-size:0;clip-rule:nonzero;display:inline;overflow:visible;visibility:visible;isolation:auto;mix-blend-mode:normal;color-interpolation:sRGB;color-interpolation-filters:linearRGB;solid-color:#000000;solid-opacity:1;vector-effect:none;fill:url(#linearGradient1645);fill-opacity:1;fill-rule:evenodd;stroke:none;stroke-width:15.5612;stroke-linecap:butt;stroke-linejoin:miter;stroke-miterlimit:2;stroke-dasharray:none;stroke-dashoffset:0;stroke-opacity:1;color-rendering:auto;image-rendering:auto;shape-rendering:auto;text-rendering:auto;enable-background:accumulate;stop-color:#000000"
   inkscape:label="amber"
   d="m 253.23435,284.87695 v 99.98828 1.74024 a 3.916116,2.776224 0 0 0 0.22265,0.93359 c 1.27836,8.45904 8.56338,16.4505 20.5332,23.6582 13.22431,7.96321 32.19983,15.0525 55.58985,21.00977 46.78002,11.91454 111.2219,19.24414 182.40039,19.24414 71.17848,0 135.61842,-7.3296 182.39844,-19.24414 23.38999,-5.95727 42.36554,-13.04656 55.58983,-21.00977 11.96792,-7.20653 19.25115,-15.19678 20.53125,-23.65429 a 3.916116,2.776224 0 0 0 0.22461,-0.9375 v -1.74024 -99.98633 c -3.98314,4.5087 -9.34378,8.71983 -15.73828,12.57032 -14.28241,8.60036 -33.99446,15.90078 -57.97265,22.00781 -47.9564,12.21419 -113.10492,19.55078 -185.0332,19.55078 -71.92826,0 -137.04165,-7.33659 -184.99805,-19.55078 -23.97822,-6.10703 -43.72542,-13.40745 -58.00781,-22.00781 -6.39542,-3.85104 -11.75692,-8.06284 -15.74023,-12.57227 z" /></svg>
