<?xml version="1.0" encoding="UTF-8" standalone="no"?>
<svg
   xmlns:dc="http://purl.org/dc/elements/1.1/"
   xmlns:cc="http://creativecommons.org/ns#"
   xmlns:rdf="http://www.w3.org/1999/02/22-rdf-syntax-ns#"
   xmlns:svg="http://www.w3.org/2000/svg"
   xmlns="http://www.w3.org/2000/svg"
   xmlns:xlink="http://www.w3.org/1999/xlink"
   xmlns:sodipodi="http://sodipodi.sourceforge.net/DTD/sodipodi-0.dtd"
   xmlns:inkscape="http://www.inkscape.org/namespaces/inkscape"
   width="100%"
   height="100%"
   viewBox="0 0 1024 1024"
   version="1.1"
   xml:space="preserve"
   style="fill-rule:evenodd;clip-rule:evenodd;stroke-linejoin:round;stroke-miterlimit:2;"
   id="svg2366"
   sodipodi:docname="icon-2.svg"
   inkscape:version="1.0.2 (e86c8708, 2021-01-15)"
   inkscape:export-xdpi="57.790001"
   inkscape:export-ydpi="57.790001"
   inkscape:label="green"><defs
   id="defs2969"><linearGradient
     inkscape:collect="always"
     id="linearGradient1188"><stop
       style="stop-color:#fa892d;stop-opacity:1"
       offset="0"
       id="stop1184" /><stop
       style="stop-color:#dc7928;stop-opacity:1"
       offset="1"
       id="stop1186" /></linearGradient><linearGradient
     inkscape:collect="always"
     id="linearGradient1180"><stop
       style="stop-color:#c7652c;stop-opacity:1"
       offset="0"
       id="stop1176" /><stop
       style="stop-color:#954c21;stop-opacity:0.99596769"
       offset="1"
       id="stop1178" /></linearGradient><linearGradient
     inkscape:collect="always"
     id="linearGradient1172"><stop
       style="stop-color:#de272e;stop-opacity:1"
       offset="0"
       id="stop1168" /><stop
       style="stop-color:#a91e23;stop-opacity:0.99596769"
       offset="1"
       id="stop1170" /></linearGradient><linearGradient
     inkscape:collect="always"
     id="linearGradient1164"><stop
       style="stop-color:#529a4b;stop-opacity:1"
       offset="0"
       id="stop1160" /><stop
       style="stop-color:#3f773a;stop-opacity:1"
       offset="1"
       id="stop1162" /></linearGradient><linearGradient
     inkscape:collect="always"
     id="linearGradient1060"><stop
       style="stop-color:#0064a7;stop-opacity:0.98823529"
       offset="0"
       id="stop1056" /><stop
       style="stop-color:#084772;stop-opacity:1"
       offset="1"
       id="stop1058" /></linearGradient><linearGradient
     inkscape:collect="always"
     xlink:href="#linearGradient1172"
     id="linearGradient1174"
     x1="253.23432"
     y1="484.62205"
     x2="770.72467"
     y2="484.62205"
     gradientUnits="userSpaceOnUse" /><linearGradient
     inkscape:collect="always"
     xlink:href="#linearGradient1180"
     id="linearGradient1182"
     x1="253.23434"
     y1="358.66209"
     x2="770.72465"
     y2="358.66209"
     gradientUnits="userSpaceOnUse" /><linearGradient
     inkscape:collect="always"
     xlink:href="#linearGradient1188"
     id="linearGradient1190"
     x1="28.180038"
     y1="99.055267"
     x2="57.0158"
     y2="99.055267"
     gradientUnits="userSpaceOnUse" /><linearGradient
     inkscape:collect="always"
     xlink:href="#linearGradient1060"
     id="linearGradient1225"
     gradientUnits="userSpaceOnUse"
     x1="253.23431"
     y1="484.62204"
     x2="770.72467"
     y2="484.62204"
     gradientTransform="translate(-0.1972455,126.4043)" /><linearGradient
     inkscape:collect="always"
     xlink:href="#linearGradient1164"
     id="linearGradient1225-0"
     gradientUnits="userSpaceOnUse"
     x1="253.23431"
     y1="484.62204"
     x2="770.72467"
     y2="484.62204"
     gradientTransform="translate(0.08926976,250.79255)" /><filter
     inkscape:collect="always"
     style="color-interpolation-filters:sRGB"
     id="filter991"
     x="-0.0330672"
     width="1.0661344"
     y="-0.0330672"
     height="1.0661344"><feGaussianBlur
       inkscape:collect="always"
       stdDeviation="11.353067"
       id="feGaussianBlur993" /></filter></defs><metadata
   id="metadata2370"><rdf:RDF><cc:Work
       rdf:about=""><dc:format>image/svg+xml</dc:format><dc:type
         rdf:resource="http://purl.org/dc/dcmitype/StillImage" /><dc:title /></cc:Work></rdf:RDF></metadata><sodipodi:namedview
   pagecolor="#ffffff"
   bordercolor="#666666"
   borderopacity="1"
   objecttolerance="10"
   gridtolerance="10"
   guidetolerance="10"
   inkscape:pageopacity="0"
   inkscape:pageshadow="2"
   inkscape:window-width="1920"
   inkscape:window-height="1052"
   id="namedview2368"
   showgrid="false"
   inkscape:zoom="0.56915012"
   inkscape:cx="338.84421"
   inkscape:cy="424.54609"
   inkscape:window-x="3600"
   inkscape:window-y="0"
   inkscape:window-maximized="1"
   inkscape:current-layer="svg2366"
   inkscape:document-rotation="0" />
  <path
   d="m 923.36257,294.099 c 8.858,-100.22 -75.686,-184.628 -187.957,-188.083 h -447.433 c -105.078,-1.342 -189.279998,82.953 -187.957,188.083 v 447.732 c 0.604,106.676 84.886,191.244 187.957,188.083 h 447.433 c 105.547,2.157 189.892,-81.99 187.957,-188.083 z"
   id="path2364-9"
   style="clip-rule:evenodd;opacity:0.501608;fill:#0b0b0b;fill-opacity:1;fill-rule:evenodd;stroke:none;stroke-linejoin:round;stroke-miterlimit:2;stroke-opacity:1;filter:url(#filter991)"
   inkscape:label="shadow"
   transform="matrix(0.9976477,0,0,1.0000753,1.2043061,0.96123416)" /><path
   d="M923.347,288.083c8.858,-100.22 -75.686,-184.628 -187.957,-188.083l-447.433,-0c-105.078,-1.342 -189.28,82.953 -187.957,188.083l-0,447.732c0.604,106.676 84.886,191.244 187.957,188.083l447.433,0c105.547,2.157 189.892,-81.99 187.957,-188.083l0,-447.732Z"
   id="path2364"
   style="fill:#fdfdfd;fill-opacity:1;stroke:none;stroke-opacity:1"
   inkscape:label="background" /><path
   id="path1112-3-6"
   style="color:#000000;font-style:normal;font-variant:normal;font-weight:normal;font-stretch:normal;font-size:medium;line-height:normal;font-family:sans-serif;font-variant-ligatures:normal;font-variant-position:normal;font-variant-caps:normal;font-variant-numeric:normal;font-variant-alternates:normal;font-variant-east-asian:normal;font-feature-settings:normal;font-variation-settings:normal;text-indent:0;text-align:start;text-decoration:none;text-decoration-line:none;text-decoration-style:solid;text-decoration-color:#000000;letter-spacing:normal;word-spacing:normal;text-transform:none;writing-mode:lr-tb;direction:ltr;text-orientation:mixed;dominant-baseline:auto;baseline-shift:baseline;text-anchor:start;white-space:normal;shape-padding:0;shape-margin:0;inline-size:0;clip-rule:nonzero;display:inline;overflow:visible;visibility:visible;isolation:auto;mix-blend-mode:normal;color-interpolation:sRGB;color-interpolation-filters:linearRGB;solid-color:#000000;solid-opacity:1;vector-effect:none;fill:url(#linearGradient1225-0);fill-opacity:1;fill-rule:evenodd;stroke:none;stroke-width:15.5612;stroke-linecap:butt;stroke-linejoin:miter;stroke-miterlimit:2;stroke-dasharray:none;stroke-dashoffset:0;stroke-opacity:1;color-rendering:auto;image-rendering:auto;shape-rendering:auto;text-rendering:auto;enable-background:accumulate;stop-color:#000000"
   inkscape:label="green"
   d="m 770.81445,661.63086 c -3.98331,4.50942 -9.34482,8.72123 -15.74023,12.57226 -14.28241,8.60037 -33.99251,15.90079 -57.9707,22.00782 -47.9564,12.21419 -113.10688,19.55078 -185.03516,19.55078 -71.92826,0 -137.04165,-7.33659 -184.99805,-19.55078 -23.97822,-6.10703 -43.72542,-13.40745 -58.00781,-22.00782 -6.39443,-3.85044 -11.75516,-8.06167 -15.73828,-12.57031 v 99.98633 1.74024 a 3.916116,2.776224 0 0 0 0.22266,0.93359 c 1.27835,8.45904 8.56337,16.4505 20.5332,23.6582 13.22431,7.96321 32.19982,15.0525 55.58984,21.00977 46.78002,11.91454 111.22191,19.24414 182.40039,19.24414 71.17849,0 135.61842,-7.3296 182.39844,-19.24414 23.39001,-5.95727 42.36555,-13.04656 55.58984,-21.00977 11.96792,-7.20653 19.25115,-15.19679 20.53125,-23.65429 a 3.916116,2.776224 0 0 0 0.22461,-0.9375 v -1.74024 z" />
<path
   id="path1112-3"
   style="color:#000000;font-style:normal;font-variant:normal;font-weight:normal;font-stretch:normal;font-size:medium;line-height:normal;font-family:sans-serif;font-variant-ligatures:normal;font-variant-position:normal;font-variant-caps:normal;font-variant-numeric:normal;font-variant-alternates:normal;font-variant-east-asian:normal;font-feature-settings:normal;font-variation-settings:normal;text-indent:0;text-align:start;text-decoration:none;text-decoration-line:none;text-decoration-style:solid;text-decoration-color:#000000;letter-spacing:normal;word-spacing:normal;text-transform:none;writing-mode:lr-tb;direction:ltr;text-orientation:mixed;dominant-baseline:auto;baseline-shift:baseline;text-anchor:start;white-space:normal;shape-padding:0;shape-margin:0;inline-size:0;clip-rule:nonzero;display:inline;overflow:visible;visibility:visible;isolation:auto;mix-blend-mode:normal;color-interpolation:sRGB;color-interpolation-filters:linearRGB;solid-color:#000000;solid-opacity:1;vector-effect:none;fill:url(#linearGradient1225);fill-opacity:1;fill-rule:evenodd;stroke:none;stroke-width:15.5612;stroke-linecap:butt;stroke-linejoin:miter;stroke-miterlimit:2;stroke-dasharray:none;stroke-dashoffset:0;stroke-opacity:1;color-rendering:auto;image-rendering:auto;shape-rendering:auto;text-rendering:auto;enable-background:accumulate;stop-color:#000000"
   inkscape:label="blue"
   d="m 253.03711,537.24219 v 99.98828 1.74023 a 3.916116,2.776224 0 0 0 0.22266,0.9336 c 1.27836,8.45904 8.56337,16.4505 20.5332,23.6582 13.22431,7.96321 32.19982,15.0525 55.58984,21.00977 46.78002,11.91454 111.22191,19.24414 182.40039,19.24414 71.17849,0 135.61842,-7.3296 182.39844,-19.24414 23.39001,-5.95727 42.36556,-13.04656 55.58984,-21.00977 11.96792,-7.20653 19.25115,-15.19679 20.53125,-23.6543 a 3.916116,2.776224 0 0 0 0.22461,-0.9375 v -1.74023 -99.98633 c -3.98314,4.5087 -9.34378,8.71982 -15.73828,12.57031 -14.2824,8.60037 -33.99445,15.90079 -57.97265,22.00782 -47.9564,12.21419 -113.10493,19.55078 -185.03321,19.55078 -71.92825,0 -137.04165,-7.33659 -184.99804,-19.55078 -23.97822,-6.10703 -43.72543,-13.40745 -58.00782,-22.00782 -6.39541,-3.85103 -11.75692,-8.06284 -15.74023,-12.57226 z" /><path
   id="path1112"
   style="color:#000000;font-style:normal;font-variant:normal;font-weight:normal;font-stretch:normal;font-size:medium;line-height:normal;font-family:sans-serif;font-variant-ligatures:normal;font-variant-position:normal;font-variant-caps:normal;font-variant-numeric:normal;font-variant-alternates:normal;font-variant-east-asian:normal;font-feature-settings:normal;font-variation-settings:normal;text-indent:0;text-align:start;text-decoration:none;text-decoration-line:none;text-decoration-style:solid;text-decoration-color:#000000;letter-spacing:normal;word-spacing:normal;text-transform:none;writing-mode:lr-tb;direction:ltr;text-orientation:mixed;dominant-baseline:auto;baseline-shift:baseline;text-anchor:start;white-space:normal;shape-padding:0;shape-margin:0;inline-size:0;clip-rule:nonzero;display:inline;overflow:visible;visibility:visible;isolation:auto;mix-blend-mode:normal;color-interpolation:sRGB;color-interpolation-filters:linearRGB;solid-color:#000000;solid-opacity:1;vector-effect:none;fill:url(#linearGradient1174);fill-opacity:1;fill-rule:evenodd;stroke:none;stroke-width:15.5612;stroke-linecap:butt;stroke-linejoin:miter;stroke-miterlimit:2;stroke-dasharray:none;stroke-dashoffset:0;stroke-opacity:1;color-rendering:auto;image-rendering:auto;shape-rendering:auto;text-rendering:auto;enable-background:accumulate;stop-color:#000000"
   inkscape:label="red"
   d="m 253.23438,410.83789 v 99.98828 1.74024 a 3.916116,2.776224 0 0 0 0.22265,0.93359 c 1.27836,8.45904 8.56338,16.4505 20.5332,23.6582 13.22431,7.96321 32.19983,15.0525 55.58985,21.00977 46.78002,11.91454 111.2219,19.24414 182.40039,19.24414 71.17848,0 135.61842,-7.3296 182.39844,-19.24414 23.39,-5.95727 42.36555,-13.04656 55.58984,-21.00977 11.96792,-7.20653 19.25115,-15.19678 20.53125,-23.65429 a 3.916116,2.776224 0 0 0 0.22461,-0.9375 v -1.74024 -99.98633 c -3.98314,4.5087 -9.34378,8.71983 -15.73828,12.57032 -14.28241,8.60036 -33.99446,15.90078 -57.97266,22.00781 -47.9564,12.21419 -113.10492,19.55078 -185.0332,19.55078 -71.92826,0 -137.04165,-7.33659 -184.99805,-19.55078 -23.97822,-6.10703 -43.72542,-13.40745 -58.00781,-22.00781 -6.39542,-3.85104 -11.75692,-8.06284 -15.74023,-12.57227 z" /><g
   id="g1917"
   transform="matrix(18.481732,0,0,13.102121,-275.29889,-1030.8792)"
   style="display:inline"><path
     id="path1134"
     style="color:#000000;font-style:normal;font-variant:normal;font-weight:normal;font-stretch:normal;font-size:medium;line-height:normal;font-family:sans-serif;font-variant-ligatures:normal;font-variant-position:normal;font-variant-caps:normal;font-variant-numeric:normal;font-variant-alternates:normal;font-variant-east-asian:normal;font-feature-settings:normal;font-variation-settings:normal;text-indent:0;text-align:start;text-decoration:none;text-decoration-line:none;text-decoration-style:solid;text-decoration-color:#000000;letter-spacing:normal;word-spacing:normal;text-transform:none;writing-mode:lr-tb;direction:ltr;text-orientation:mixed;dominant-baseline:auto;baseline-shift:baseline;text-anchor:start;white-space:normal;shape-padding:0;shape-margin:0;inline-size:0;clip-rule:nonzero;display:inline;overflow:visible;visibility:visible;isolation:auto;mix-blend-mode:normal;color-interpolation:sRGB;color-interpolation-filters:linearRGB;solid-color:#000000;solid-opacity:1;vector-effect:none;fill:url(#linearGradient1182);fill-opacity:1;fill-rule:evenodd;stroke:none;stroke-width:15.5612;stroke-linecap:butt;stroke-linejoin:miter;stroke-miterlimit:2;stroke-dasharray:none;stroke-dashoffset:0;stroke-opacity:1;color-rendering:auto;image-rendering:auto;shape-rendering:auto;text-rendering:auto;enable-background:accumulate;stop-color:#000000;stop-opacity:1"
     d="m 257.16992,265.87305 a 3.9161162,2.776224 0 0 0 -3.93554,2.78906 v 116.20508 1.74023 a 3.9161162,2.776224 0 0 0 0.22265,0.9336 c 1.27878,8.45866 8.56383,16.45078 20.5332,23.6582 13.22431,7.96321 32.19983,15.05249 55.58985,21.00976 46.78002,11.91455 111.2219,19.24219 182.40039,19.24219 71.17849,0 135.61842,-7.32764 182.39844,-19.24219 23.39001,-5.95727 42.36555,-13.04655 55.58984,-21.00976 11.96835,-7.2068 19.25154,-15.1984 20.53125,-23.65625 a 3.9161162,2.776224 0 0 0 0.22461,-0.93555 v -1.74023 -116.20508 a 3.9161162,2.776224 0 0 0 -3.89844,-2.78906 z"
     transform="matrix(0.05410748,0,0,0.07632352,14.89573,78.68033)"
     inkscape:label="amber" /><ellipse
     style="fill:url(#linearGradient1190);fill-opacity:1;fill-rule:evenodd;stroke:#ffffff;stroke-width:1;stroke-miterlimit:4;stroke-dasharray:none;stroke-opacity:1"
     id="path997-4-4-5-1-0-7-9"
     cx="42.597919"
     cy="99.055267"
     rx="13.917881"
     ry="5.0002398"
     inkscape:label="amber-top" /></g></svg>
